<svg width="20" height="18" viewBox="0 0 20 18" fill="none" xmlns="http://www.w3.org/2000/svg">
<path id="Vector" d="M19.7332 16.5C19.7332 16.6989 19.6542 16.8897 19.5135 17.0303C19.3729 17.171 19.1821 17.25 18.9832 17.25H0.983215C0.784303 17.25 0.593538 17.171 0.452885 17.0303C0.312233 16.8897 0.233215 16.6989 0.233215 16.5V1.5C0.233215 1.30109 0.312233 1.11032 0.452885 0.96967C0.593538 0.829018 0.784303 0.75 0.983215 0.75C1.18213 0.75 1.37289 0.829018 1.51355 0.96967C1.6542 1.11032 1.73322 1.30109 1.73322 1.5V10.3472L6.48915 6.1875C6.61857 6.07421 6.78299 6.00885 6.95487 6.00236C7.12675 5.99587 7.29563 6.04866 7.43322 6.15188L12.9467 10.2872L18.4892 5.4375C18.5618 5.36556 18.6484 5.30925 18.7437 5.27201C18.8389 5.23478 18.9407 5.21741 19.0429 5.22097C19.1451 5.22454 19.2455 5.24896 19.3379 5.29275C19.4303 5.33653 19.5128 5.39875 19.5803 5.47558C19.6478 5.5524 19.6988 5.64222 19.7303 5.7395C19.7618 5.83678 19.7731 5.93948 19.7634 6.04128C19.7538 6.14307 19.7234 6.24182 19.6742 6.33146C19.625 6.42109 19.558 6.49972 19.4773 6.5625L13.4773 11.8125C13.3479 11.9258 13.1834 11.9912 13.0116 11.9976C12.8397 12.0041 12.6708 11.9513 12.5332 11.8481L7.01978 7.71469L1.73322 12.3403V15.75H18.9832C19.1821 15.75 19.3729 15.829 19.5135 15.9697C19.6542 16.1103 19.7332 16.3011 19.7332 16.5Z" fill="#526B92"/>
</svg>
