<svg width="18" height="18" viewBox="0 0 18 18" fill="none" xmlns="http://www.w3.org/2000/svg">
<path id="Vector" d="M16.5 0H1.5C1.10218 0 0.720644 0.158035 0.43934 0.43934C0.158035 0.720644 0 1.10218 0 1.5V16.5C0 16.8978 0.158035 17.2794 0.43934 17.5607C0.720644 17.842 1.10218 18 1.5 18H16.5C16.8978 18 17.2794 17.842 17.5607 17.5607C17.842 17.2794 18 16.8978 18 16.5V1.5C18 1.10218 17.842 0.720644 17.5607 0.43934C17.2794 0.158035 16.8978 0 16.5 0ZM5.25 12C5.39834 12 5.54334 12.044 5.66668 12.1264C5.79001 12.2088 5.88614 12.3259 5.94291 12.463C5.99968 12.6 6.01453 12.7508 5.98559 12.8963C5.95665 13.0418 5.88522 13.1754 5.78033 13.2803C5.67544 13.3852 5.5418 13.4566 5.39632 13.4856C5.25083 13.5145 5.10003 13.4997 4.96299 13.4429C4.82594 13.3861 4.70881 13.29 4.6264 13.1667C4.54399 13.0433 4.5 12.8983 4.5 12.75C4.5 12.5511 4.57902 12.3603 4.71967 12.2197C4.86032 12.079 5.05109 12 5.25 12ZM1.5 1.5H4.5V10.6294C3.99959 10.8063 3.57783 11.1544 3.30928 11.6122C3.04072 12.07 2.94265 12.6081 3.0324 13.1312C3.12216 13.6543 3.39395 14.1288 3.79976 14.471C4.20556 14.8131 4.71923 15.0007 5.25 15.0007C5.78077 15.0007 6.29444 14.8131 6.70024 14.471C7.10605 14.1288 7.37784 13.6543 7.4676 13.1312C7.55735 12.6081 7.45928 12.07 7.19072 11.6122C6.92217 11.1544 6.50041 10.8063 6 10.6294V7.81031L10.5 12.3103V16.5H1.5V1.5ZM16.5 16.5H12V12C12.0001 11.9015 11.9807 11.8039 11.9431 11.7129C11.9055 11.6218 11.8503 11.5391 11.7806 11.4694L6 5.68969V1.5H9V3.75C8.99992 3.84852 9.01926 3.94609 9.0569 4.03714C9.09454 4.12818 9.14975 4.21092 9.21937 4.28063L10.7194 5.78063C10.5741 6.08308 10.4991 6.41447 10.5 6.75C10.5 7.19501 10.632 7.63002 10.8792 8.00003C11.1264 8.37004 11.4778 8.65843 11.889 8.82873C12.3001 8.99903 12.7525 9.04358 13.189 8.95677C13.6254 8.86995 14.0263 8.65566 14.341 8.34099C14.6557 8.02632 14.87 7.62541 14.9568 7.18895C15.0436 6.7525 14.999 6.3001 14.8287 5.88896C14.6584 5.47783 14.37 5.12643 14 4.87919C13.63 4.63196 13.195 4.5 12.75 4.5C12.4144 4.49941 12.083 4.57473 11.7806 4.72031L10.5 3.43969V1.5H16.5V16.5ZM12.75 6C12.8983 6 13.0433 6.04399 13.1667 6.1264C13.29 6.20881 13.3861 6.32594 13.4429 6.46299C13.4997 6.60003 13.5145 6.75083 13.4856 6.89632C13.4566 7.0418 13.3852 7.17544 13.2803 7.28033C13.1754 7.38522 13.0418 7.45665 12.8963 7.48559C12.7508 7.51453 12.6 7.49968 12.463 7.44291C12.3259 7.38614 12.2088 7.29001 12.1264 7.16668C12.044 7.04334 12 6.89834 12 6.75C12 6.55109 12.079 6.36032 12.2197 6.21967C12.3603 6.07902 12.5511 6 12.75 6Z" fill="#526B92"/>
</svg>
