<svg width="18" height="20" viewBox="0 0 18 20" fill="none" xmlns="http://www.w3.org/2000/svg">
<path id="Vector" d="M16.5 1.75H14.25V1C14.25 0.801088 14.171 0.610322 14.0303 0.46967C13.8897 0.329018 13.6989 0.25 13.5 0.25C13.3011 0.25 13.1103 0.329018 12.9697 0.46967C12.829 0.610322 12.75 0.801088 12.75 1V1.75H5.25V1C5.25 0.801088 5.17098 0.610322 5.03033 0.46967C4.88968 0.329018 4.69891 0.25 4.5 0.25C4.30109 0.25 4.11032 0.329018 3.96967 0.46967C3.82902 0.610322 3.75 0.801088 3.75 1V1.75H1.5C1.10218 1.75 0.720644 1.90804 0.43934 2.18934C0.158035 2.47064 0 2.85218 0 3.25V18.25C0 18.6478 0.158035 19.0294 0.43934 19.3107C0.720644 19.592 1.10218 19.75 1.5 19.75H16.5C16.8978 19.75 17.2794 19.592 17.5607 19.3107C17.842 19.0294 18 18.6478 18 18.25V3.25C18 2.85218 17.842 2.47064 17.5607 2.18934C17.2794 1.90804 16.8978 1.75 16.5 1.75ZM3.75 3.25V4C3.75 4.19891 3.82902 4.38968 3.96967 4.53033C4.11032 4.67098 4.30109 4.75 4.5 4.75C4.69891 4.75 4.88968 4.67098 5.03033 4.53033C5.17098 4.38968 5.25 4.19891 5.25 4V3.25H12.75V4C12.75 4.19891 12.829 4.38968 12.9697 4.53033C13.1103 4.67098 13.3011 4.75 13.5 4.75C13.6989 4.75 13.8897 4.67098 14.0303 4.53033C14.171 4.38968 14.25 4.19891 14.25 4V3.25H16.5V6.25H1.5V3.25H3.75ZM16.5 18.25H1.5V7.75H16.5V18.25Z" fill="#526B92"/>
</svg>
