<svg width="24" height="18" viewBox="0 0 24 18" fill="none" xmlns="http://www.w3.org/2000/svg">
<path id="Vector" d="M23.0295 3.96681L20.0295 0.966809C19.8888 0.826078 19.6979 0.747017 19.4989 0.747017C19.2999 0.747017 19.109 0.826078 18.9683 0.966809C18.8276 1.10754 18.7485 1.29841 18.7485 1.49743C18.7485 1.69646 18.8276 1.88733 18.9683 2.02806L20.6886 3.74743H17.9989C17.0801 3.78073 16.1769 3.99515 15.3411 4.37837C14.0642 4.96806 12.4508 6.22618 12.0092 8.87837C11.5105 11.8727 9.2811 12.5552 8.16547 12.709C7.96876 11.801 7.442 10.9984 6.68726 10.4566C5.93252 9.91481 5.00355 9.6725 4.08034 9.77659C3.15713 9.88068 2.30543 10.3238 1.69028 11.02C1.07512 11.7162 0.740312 12.616 0.750724 13.545C0.761136 14.474 1.11603 15.3661 1.74663 16.0483C2.37724 16.7306 3.23866 17.1545 4.16396 17.2378C5.08927 17.3212 6.01259 17.0581 6.75499 16.4996C7.4974 15.941 8.00604 15.1268 8.18235 14.2146C8.85661 14.1378 9.51534 13.9592 10.1361 13.6849C11.413 13.1224 13.0302 11.8662 13.4886 9.12025C14.1223 5.31962 17.8433 5.24743 17.9989 5.24743H20.6886L18.9683 6.96681C18.8276 7.10754 18.7485 7.29841 18.7485 7.49743C18.7485 7.69646 18.8276 7.88733 18.9683 8.02806C19.109 8.16879 19.2999 8.24785 19.4989 8.24785C19.6979 8.24785 19.8888 8.16879 20.0295 8.02806L23.0295 5.02806C23.0993 4.9584 23.1546 4.87569 23.1923 4.78464C23.2301 4.69359 23.2495 4.596 23.2495 4.49743C23.2495 4.39887 23.2301 4.30128 23.1923 4.21023C23.1546 4.11918 23.0993 4.03646 23.0295 3.96681ZM4.49891 15.7474C4.0539 15.7474 3.61888 15.6155 3.24887 15.3682C2.87886 15.121 2.59048 14.7696 2.42018 14.3585C2.24988 13.9473 2.20532 13.4949 2.29214 13.0585C2.37896 12.622 2.59325 12.2211 2.90792 11.9064C3.22259 11.5918 3.6235 11.3775 4.05995 11.2907C4.49641 11.2038 4.94881 11.2484 5.35995 11.4187C5.77108 11.589 6.12248 11.8774 6.36971 12.2474C6.61695 12.6174 6.74891 13.0524 6.74891 13.4974C6.74891 14.0942 6.51186 14.6665 6.0899 15.0884C5.66794 15.5104 5.09564 15.7474 4.49891 15.7474Z" fill="#1B192E"/>
</svg>
